<svg width="29" height="29" viewBox="0 0 29 29" fill="none" xmlns="http://www.w3.org/2000/svg">
<rect width="29" height="29" rx="5" fill="#003CFF"/>
<path d="M16.4727 9.32L15.5607 22.64C15.5447 22.88 15.4567 23 15.2967 23H13.9767C13.0807 23 12.4407 22.824 12.0567 22.472C11.6727 22.12 11.4807 21.616 11.4807 20.96C11.4807 20.72 11.4887 20.36 11.5047 19.88C11.5367 19.4 11.5767 18.84 11.6247 18.2C11.6727 17.544 11.7207 16.84 11.7687 16.088C11.8327 15.32 11.8967 14.552 11.9607 13.784C12.0247 13 12.0807 12.224 12.1287 11.456C12.1927 10.688 12.2487 9.976 12.2967 9.32H8.45666C8.28066 9.32 8.19266 9.208 8.19266 8.984L8.26466 7.64C8.28066 7.432 8.31266 7.232 8.36066 7.04C8.42466 6.832 8.52066 6.648 8.64866 6.488C8.77666 6.328 8.93666 6.2 9.12866 6.104C9.33666 6.008 9.58466 5.96 9.87266 5.96H20.6007C20.6967 5.96 20.7847 5.984 20.8647 6.032C20.9447 6.08 20.9847 6.168 20.9847 6.296L20.8887 7.712C20.8567 8.192 20.7207 8.584 20.4807 8.888C20.2567 9.176 19.7847 9.32 19.0647 9.32H16.4727Z" fill="white"/>
</svg>
