<svg width="97" height="19" viewBox="0 0 97 19" fill="none" xmlns="http://www.w3.org/2000/svg">Add commentMore actions
    <path d="M8.32031 4.32L7.40831 17.64C7.39231 17.88 7.30431 18 7.14431 18H5.82431C4.92831 18 4.28831 17.824 3.90431 17.472C3.52031 17.12 3.32831 16.616 3.32831 15.96C3.32831 15.72 3.33631 15.36 3.35231 14.88C3.38431 14.4 3.42431 13.84 3.47231 13.2C3.52031 12.544 3.56831 11.84 3.61631 11.088C3.68031 10.32 3.74431 9.552 3.80831 8.784C3.87231 8 3.92831 7.224 3.97631 6.456C4.04031 5.688 4.09631 4.976 4.14431 4.32H0.304313C0.128313 4.32 0.0403125 4.208 0.0403125 3.984L0.112312 2.64C0.128313 2.432 0.160313 2.232 0.208313 2.04C0.272313 1.832 0.368313 1.648 0.496313 1.488C0.624313 1.328 0.784313 1.2 0.976313 1.104C1.18431 1.008 1.43231 0.959999 1.72031 0.959999H12.4483C12.5443 0.959999 12.6323 0.983999 12.7123 1.032C12.7923 1.08 12.8323 1.168 12.8323 1.296L12.7363 2.712C12.7043 3.192 12.5683 3.584 12.3283 3.888C12.1043 4.176 11.6323 4.32 10.9123 4.32H8.32031ZM17.5436 18.24C16.8396 18.24 16.1356 18.152 15.4316 17.976C14.7436 17.8 14.1196 17.496 13.5596 17.064C13.0156 16.632 12.5676 16.056 12.2156 15.336C11.8636 14.616 11.6876 13.712 11.6876 12.624C11.6876 12.224 11.7196 11.744 11.7836 11.184C11.8476 10.624 11.9676 10.048 12.1436 9.456C12.3356 8.864 12.5916 8.28 12.9116 7.704C13.2476 7.112 13.6796 6.584 14.2076 6.12C14.7356 5.656 15.3756 5.28 16.1276 4.992C16.8796 4.704 17.7756 4.56 18.8156 4.56C19.6476 4.56 20.3516 4.656 20.9276 4.848C21.5036 5.04 21.9676 5.304 22.3196 5.64C22.6716 5.96 22.9276 6.336 23.0876 6.768C23.2476 7.2 23.3276 7.664 23.3276 8.16C23.3276 8.896 23.1756 9.52 22.8716 10.032C22.5836 10.544 22.1996 10.976 21.7196 11.328C21.2556 11.664 20.7356 11.928 20.1596 12.12C19.5836 12.312 19.0156 12.464 18.4556 12.576C17.8956 12.672 17.3756 12.736 16.8956 12.768C16.4316 12.784 16.0716 12.792 15.8156 12.792C15.8156 13.096 15.8556 13.4 15.9356 13.704C16.0316 13.992 16.1676 14.248 16.3436 14.472C16.5196 14.696 16.7516 14.88 17.0396 15.024C17.3276 15.168 17.6796 15.24 18.0956 15.24C18.5116 15.24 18.8316 15.176 19.0556 15.048C19.2956 14.904 19.4876 14.752 19.6316 14.592C19.7756 14.416 19.8956 14.264 19.9916 14.136C20.1036 13.992 20.2476 13.92 20.4236 13.92C20.5036 13.92 20.6396 13.944 20.8316 13.992C21.0396 14.024 21.2476 14.104 21.4556 14.232C21.6636 14.36 21.8476 14.536 22.0076 14.76C22.1676 14.984 22.2476 15.272 22.2476 15.624C22.2476 16.088 22.1036 16.488 21.8156 16.824C21.5276 17.16 21.1516 17.432 20.6876 17.64C20.2396 17.848 19.7356 18 19.1756 18.096C18.6156 18.192 18.0716 18.24 17.5436 18.24ZM17.9996 7.752C17.6476 7.752 17.3436 7.856 17.0876 8.064C16.8476 8.256 16.6396 8.504 16.4636 8.808C16.3036 9.112 16.1756 9.448 16.0796 9.816C15.9996 10.184 15.9356 10.536 15.8876 10.872C16.8796 10.856 17.6796 10.688 18.2876 10.368C18.9116 10.048 19.2236 9.592 19.2236 9C19.2236 8.68 19.1196 8.392 18.9116 8.136C18.7196 7.88 18.4156 7.752 17.9996 7.752ZM27.5571 18.216C26.5651 18.216 25.8531 17.952 25.4211 17.424C24.9891 16.896 24.7731 16.024 24.7731 14.808C24.7731 14.616 24.7811 14.376 24.7971 14.088C24.8291 13.8 24.8611 13.432 24.8931 12.984C24.9411 12.52 24.9971 11.952 25.0611 11.28C25.1251 10.608 25.1891 9.792 25.2531 8.832C25.3331 7.872 25.4131 6.744 25.4931 5.448C25.5891 4.152 25.6851 2.648 25.7811 0.935999C25.7971 0.583999 25.8371 0.375999 25.9011 0.311999C25.9491 0.263999 26.0771 0.24 26.2851 0.24H27.2211C27.7011 0.24 28.1011 0.296 28.4211 0.407999C28.7411 0.52 28.9971 0.671999 29.1891 0.863999C29.3811 1.056 29.5171 1.28 29.5971 1.536C29.6771 1.776 29.7171 2.032 29.7171 2.304C29.7171 2.624 29.6931 3.088 29.6451 3.696C29.6131 4.288 29.5651 4.96 29.5011 5.712C29.4371 6.464 29.3731 7.248 29.3091 8.064C29.2451 8.88 29.1811 9.664 29.1171 10.416C29.0531 11.152 28.9971 11.816 28.9491 12.408C28.9171 13 28.9011 13.448 28.9011 13.752C28.9011 14.168 28.9731 14.464 29.1171 14.64C29.2771 14.816 29.4451 14.944 29.6211 15.024C29.7971 15.088 29.9571 15.136 30.1011 15.168C30.2611 15.184 30.3411 15.232 30.3411 15.312C30.3411 15.664 30.3011 16.016 30.2211 16.368C30.1411 16.704 29.9971 17.016 29.7891 17.304C29.5811 17.576 29.2931 17.8 28.9251 17.976C28.5731 18.136 28.1171 18.216 27.5571 18.216ZM37.5593 18.24C36.8553 18.24 36.1513 18.152 35.4473 17.976C34.7593 17.8 34.1353 17.496 33.5753 17.064C33.0313 16.632 32.5833 16.056 32.2313 15.336C31.8793 14.616 31.7033 13.712 31.7033 12.624C31.7033 12.224 31.7353 11.744 31.7993 11.184C31.8633 10.624 31.9833 10.048 32.1593 9.456C32.3513 8.864 32.6073 8.28 32.9273 7.704C33.2633 7.112 33.6953 6.584 34.2233 6.12C34.7513 5.656 35.3913 5.28 36.1433 4.992C36.8953 4.704 37.7913 4.56 38.8313 4.56C39.6633 4.56 40.3673 4.656 40.9433 4.848C41.5193 5.04 41.9833 5.304 42.3353 5.64C42.6873 5.96 42.9433 6.336 43.1033 6.768C43.2633 7.2 43.3433 7.664 43.3433 8.16C43.3433 8.896 43.1913 9.52 42.8873 10.032C42.5993 10.544 42.2153 10.976 41.7353 11.328C41.2713 11.664 40.7513 11.928 40.1753 12.12C39.5993 12.312 39.0313 12.464 38.4713 12.576C37.9113 12.672 37.3913 12.736 36.9113 12.768C36.4473 12.784 36.0873 12.792 35.8313 12.792C35.8313 13.096 35.8713 13.4 35.9513 13.704C36.0473 13.992 36.1833 14.248 36.3593 14.472C36.5353 14.696 36.7673 14.88 37.0553 15.024C37.3433 15.168 37.6953 15.24 38.1113 15.24C38.5273 15.24 38.8473 15.176 39.0713 15.048C39.3113 14.904 39.5033 14.752 39.6473 14.592C39.7913 14.416 39.9113 14.264 40.0073 14.136C40.1193 13.992 40.2633 13.92 40.4393 13.92C40.5193 13.92 40.6553 13.944 40.8473 13.992C41.0553 14.024 41.2633 14.104 41.4713 14.232C41.6793 14.36 41.8633 14.536 42.0233 14.76C42.1833 14.984 42.2633 15.272 42.2633 15.624C42.2633 16.088 42.1193 16.488 41.8313 16.824C41.5433 17.16 41.1673 17.432 40.7033 17.64C40.2553 17.848 39.7513 18 39.1913 18.096C38.6313 18.192 38.0873 18.24 37.5593 18.24ZM38.0153 7.752C37.6633 7.752 37.3593 7.856 37.1033 8.064C36.8633 8.256 36.6553 8.504 36.4793 8.808C36.3193 9.112 36.1913 9.448 36.0953 9.816C36.0153 10.184 35.9513 10.536 35.9033 10.872C36.8953 10.856 37.6953 10.688 38.3033 10.368C38.9273 10.048 39.2393 9.592 39.2393 9C39.2393 8.68 39.1353 8.392 38.9273 8.136C38.7353 7.88 38.4313 7.752 38.0153 7.752ZM52.7567 15.024C52.8047 14.496 52.8527 13.944 52.9007 13.368C52.9647 12.792 53.0127 12.24 53.0447 11.712C53.0927 11.184 53.1327 10.712 53.1647 10.296C53.1967 9.88 53.2127 9.576 53.2127 9.384C53.2127 8.968 53.1087 8.6 52.9007 8.28C52.7087 7.944 52.3247 7.776 51.7487 7.776C50.9807 7.776 50.3567 8.136 49.8767 8.856C49.4127 9.576 49.1407 10.536 49.0607 11.736C49.0287 12.072 48.9887 12.544 48.9407 13.152C48.8927 13.744 48.8447 14.352 48.7967 14.976C48.7487 15.584 48.7007 16.136 48.6527 16.632C48.6207 17.112 48.6047 17.408 48.6047 17.52C48.6047 17.712 48.5647 17.84 48.4847 17.904C48.4207 17.968 48.2847 18 48.0767 18H47.2127C46.7167 18 46.3087 17.952 45.9887 17.856C45.6847 17.744 45.4367 17.592 45.2447 17.4C45.0687 17.208 44.9407 16.976 44.8607 16.704C44.7967 16.416 44.7647 16.088 44.7647 15.72C44.7647 15.368 44.7887 14.88 44.8367 14.256C44.9007 13.616 44.9807 12.744 45.0767 11.64C45.1727 10.52 45.2847 9.096 45.4127 7.368C45.5407 5.64 45.6767 3.496 45.8207 0.935999C45.8367 0.583999 45.8767 0.375999 45.9407 0.311999C45.9887 0.263999 46.1167 0.24 46.3247 0.24H47.2607C47.7407 0.24 48.1407 0.296 48.4607 0.407999C48.7807 0.52 49.0367 0.671999 49.2287 0.863999C49.4207 1.056 49.5567 1.28 49.6367 1.536C49.7167 1.776 49.7567 2.032 49.7567 2.304C49.7567 2.592 49.7247 3.128 49.6607 3.912C49.6127 4.696 49.5487 5.616 49.4687 6.672C49.9487 5.872 50.4767 5.32 51.0527 5.016C51.6447 4.712 52.3887 4.56 53.2847 4.56C53.9567 4.56 54.5407 4.632 55.0367 4.776C55.5327 4.92 55.9407 5.168 56.2607 5.52C56.5967 5.856 56.8447 6.304 57.0047 6.864C57.1647 7.408 57.2447 8.088 57.2447 8.904C57.2447 9.16 57.2207 9.6 57.1727 10.224C57.1247 10.848 57.0607 11.56 56.9807 12.36C56.9167 13.16 56.8447 14 56.7647 14.88C56.7007 15.744 56.6447 16.536 56.5967 17.256C56.5807 17.432 56.5647 17.568 56.5487 17.664C56.5327 17.76 56.5007 17.832 56.4527 17.88C56.4207 17.928 56.3647 17.96 56.2847 17.976C56.2047 17.992 56.0927 18 55.9487 18H55.1807C54.6687 18 54.2527 17.952 53.9327 17.856C53.6127 17.76 53.3647 17.624 53.1887 17.448C53.0127 17.272 52.8847 17.056 52.8047 16.8C52.7407 16.528 52.7087 16.224 52.7087 15.888C52.7087 15.728 52.7087 15.576 52.7087 15.432C52.7247 15.288 52.7407 15.152 52.7567 15.024ZM64.7663 18.24C63.6623 18.24 62.7423 18.088 62.0063 17.784C61.2863 17.464 60.7103 17.032 60.2783 16.488C59.8463 15.944 59.5423 15.312 59.3663 14.592C59.1903 13.856 59.1023 13.072 59.1023 12.24C59.1023 11.28 59.2143 10.344 59.4383 9.432C59.6783 8.504 60.0783 7.68 60.6383 6.96C61.1983 6.24 61.9343 5.664 62.8463 5.232C63.7743 4.784 64.9263 4.56 66.3023 4.56C68.3183 4.56 69.7583 5.056 70.6223 6.048C71.5023 7.024 71.9423 8.4 71.9423 10.176C71.9423 10.672 71.9023 11.224 71.8223 11.832C71.7583 12.424 71.6223 13.016 71.4143 13.608C71.2223 14.2 70.9503 14.776 70.5983 15.336C70.2623 15.896 69.8303 16.392 69.3023 16.824C68.7743 17.256 68.1343 17.6 67.3823 17.856C66.6463 18.112 65.7743 18.24 64.7663 18.24ZM65.8943 7.752C65.2863 7.752 64.7983 7.912 64.4303 8.232C64.0783 8.536 63.8063 8.912 63.6143 9.36C63.4383 9.792 63.3183 10.256 63.2543 10.752C63.2063 11.232 63.1823 11.64 63.1823 11.976C63.1823 13.032 63.3503 13.808 63.6863 14.304C64.0223 14.8 64.5023 15.048 65.1263 15.048C65.6863 15.048 66.1423 14.872 66.4943 14.52C66.8623 14.168 67.1423 13.744 67.3343 13.248C67.5423 12.752 67.6783 12.232 67.7423 11.688C67.8223 11.144 67.8623 10.688 67.8623 10.32C67.8623 9.52 67.7103 8.896 67.4063 8.448C67.1183 7.984 66.6143 7.752 65.8943 7.752ZM79.11 18.24C78.006 18.24 77.086 18.088 76.35 17.784C75.63 17.464 75.054 17.032 74.622 16.488C74.19 15.944 73.886 15.312 73.71 14.592C73.534 13.856 73.446 13.072 73.446 12.24C73.446 11.28 73.558 10.344 73.782 9.432C74.022 8.504 74.422 7.68 74.982 6.96C75.542 6.24 76.278 5.664 77.19 5.232C78.118 4.784 79.27 4.56 80.646 4.56C82.662 4.56 84.102 5.056 84.966 6.048C85.846 7.024 86.286 8.4 86.286 10.176C86.286 10.672 86.246 11.224 86.166 11.832C86.102 12.424 85.966 13.016 85.758 13.608C85.566 14.2 85.294 14.776 84.942 15.336C84.606 15.896 84.174 16.392 83.646 16.824C83.118 17.256 82.478 17.6 81.726 17.856C80.99 18.112 80.118 18.24 79.11 18.24ZM80.238 7.752C79.63 7.752 79.142 7.912 78.774 8.232C78.422 8.536 78.15 8.912 77.958 9.36C77.782 9.792 77.662 10.256 77.598 10.752C77.55 11.232 77.526 11.64 77.526 11.976C77.526 13.032 77.694 13.808 78.03 14.304C78.366 14.8 78.846 15.048 79.47 15.048C80.03 15.048 80.486 14.872 80.838 14.52C81.206 14.168 81.486 13.744 81.678 13.248C81.886 12.752 82.022 12.232 82.086 11.688C82.166 11.144 82.206 10.688 82.206 10.32C82.206 9.52 82.054 8.896 81.75 8.448C81.462 7.984 80.958 7.752 80.238 7.752ZM93.2378 8.04C93.1898 8.648 93.1338 9.248 93.0698 9.84C93.0218 10.432 92.9738 10.992 92.9258 11.52C92.8778 12.048 92.8378 12.52 92.8058 12.936C92.7898 13.352 92.7818 13.672 92.7818 13.896C92.7818 14.312 92.8298 14.592 92.9258 14.736C93.0218 14.864 93.1818 14.928 93.4058 14.928C93.5818 14.928 93.7338 14.896 93.8618 14.832C93.9898 14.768 94.1098 14.696 94.2218 14.616C94.3338 14.536 94.4298 14.464 94.5098 14.4C94.6058 14.336 94.7098 14.304 94.8218 14.304C94.9338 14.304 95.0378 14.368 95.1338 14.496C95.2298 14.624 95.2778 14.92 95.2778 15.384C95.2778 16.264 95.0378 16.96 94.5578 17.472C94.0778 17.984 93.2538 18.24 92.0858 18.24C90.9338 18.24 90.0778 17.976 89.5178 17.448C88.9738 16.904 88.7018 16.08 88.7018 14.976C88.7018 14.736 88.7098 14.456 88.7258 14.136C88.7578 13.8 88.7978 13.368 88.8458 12.84C88.8938 12.312 88.9498 11.664 89.0138 10.896C89.0938 10.128 89.1738 9.176 89.2538 8.04H87.9818C87.8538 8.04 87.7738 8.016 87.7418 7.968C87.7258 7.904 87.7178 7.816 87.7178 7.704L87.7898 6.48C87.8058 6.272 87.8298 6.072 87.8618 5.88C87.9098 5.672 87.9898 5.488 88.1018 5.328C88.2298 5.168 88.4058 5.04 88.6298 4.944C88.8538 4.848 89.1498 4.8 89.5178 4.8C89.6298 4.512 89.7578 4.168 89.9018 3.768C90.0458 3.368 90.1898 2.984 90.3338 2.616C90.4778 2.232 90.6138 1.912 90.7418 1.656C90.8858 1.4 91.0138 1.272 91.1258 1.272H91.8218C92.4938 1.272 92.9578 1.48 93.2138 1.896C93.4698 2.312 93.5978 2.808 93.5978 3.384C93.5978 3.704 93.5738 4.176 93.5258 4.8H96.0458C96.3018 4.8 96.4298 4.912 96.4298 5.136L96.3338 6.432C96.3018 6.912 96.1658 7.304 95.9258 7.608C95.7018 7.896 95.2298 8.04 94.5098 8.04H93.2378Z" fill="url(#paint0_linear_677_3456)"/>
    <defs>
        <linearGradient id="paint0_linear_677_3456" x1="43.7391" y1="32.375" x2="50.1949" y2="-2.28596" gradientUnits="userSpaceOnUse">
            <stop stop-color="#0D0BCC"/>
            <stop offset="1" stop-color="#4D61DE"/>
        </linearGradient>
    </defs>
</svg>
