<svg width="14" height="26" viewBox="0 0 14 26" fill="none" xmlns="http://www.w3.org/2000/svg">
<path d="M9.47266 9.32L8.56066 22.64C8.54466 22.88 8.45666 23 8.29666 23H6.97666C6.08066 23 5.44066 22.824 5.05666 22.472C4.67266 22.12 4.48066 21.616 4.48066 20.96C4.48066 20.72 4.48866 20.36 4.50466 19.88C4.53666 19.4 4.57666 18.84 4.62466 18.2C4.67266 17.544 4.72066 16.84 4.76866 16.088C4.83266 15.32 4.89666 14.552 4.96066 13.784C5.02466 13 5.08066 12.224 5.12866 11.456C5.19266 10.688 5.24866 9.976 5.29666 9.32H1.45666C1.28066 9.32 1.19266 9.208 1.19266 8.984L1.26466 7.64C1.28066 7.432 1.31266 7.232 1.36066 7.04C1.42466 6.832 1.52066 6.648 1.64866 6.488C1.77666 6.328 1.93666 6.2 2.12866 6.104C2.33666 6.008 2.58466 5.96 2.87266 5.96H13.6007C13.6967 5.96 13.7847 5.984 13.8647 6.032C13.9447 6.08 13.9847 6.168 13.9847 6.296L13.8887 7.712C13.8567 8.192 13.7207 8.584 13.4807 8.888C13.2567 9.176 12.7847 9.32 12.0647 9.32H9.47266Z" fill="url(#paint0_linear_888_7733)"/>
<defs>
<linearGradient id="paint0_linear_888_7733" x1="6.3913" y1="37.375" x2="23.7101" y2="24.0915" gradientUnits="userSpaceOnUse">
<stop stop-color="#0D0BCC"/>
<stop offset="1" stop-color="#4D61DE"/>
</linearGradient>
</defs>
</svg>
